<svg width="127" height="64" viewBox="0 0 127 64" fill="none" xmlns="http://www.w3.org/2000/svg">
<g clip-path="url(#clip0_388_7320)">
<path d="M48.6408 21.8601V38.2615H37.8331V24.5958L35.128 21.8601H29.7178V10.8916L37.8331 10.9301L48.6408 21.8601Z" fill="#00B74F"/>
<path d="M52.6924 27.3304V16.4004H63.5001V24.5947L66.2052 27.3304H74.3078V38.2988L63.5001 38.2603L52.6924 27.3304Z" fill="#00B74F"/>
<path d="M52.6924 5.4714V0H60.795L63.5001 2.7357L66.2052 5.4714H74.3078V16.4271L63.5001 16.4014L52.6924 5.4714Z" fill="#00B74F"/>
<path d="M18.9103 10.9297H0V38.261H10.8077V21.8596H16.2179L18.9103 24.5953V38.261H29.718V21.8596L18.9103 10.9297Z" fill="#00B74F"/>
<path d="M127 21.8601V38.2615H116.192V24.5958L113.487 21.8601H108.09V10.8916L116.192 10.9301L127 21.8601Z" fill="#00B74F"/>
<path d="M97.2824 10.9297H78.3594V38.261H89.1671V21.8596H94.5773L97.2824 24.5953V38.261H108.09V21.8596L97.2824 10.9297Z" fill="#00B74F"/>
<path opacity="0.25" d="M0 46.9307H127" stroke="white" stroke-miterlimit="10"/>
<path d="M0 61.4179V52.543H2.8829C3.5687 52.543 4.1275 52.6586 4.572 52.8897C5.0165 53.1209 5.3467 53.4292 5.5499 53.8145C5.7531 54.1998 5.8674 54.6365 5.8674 55.1374C5.8674 55.6383 5.7658 56.0493 5.5499 56.4474C5.334 56.8456 5.0165 57.141 4.572 57.385C4.1275 57.6162 3.556 57.7318 2.8702 57.7318H1.0541V61.4308H0V61.4179ZM1.0541 56.8199H2.8575C3.556 56.8199 4.064 56.6658 4.3561 56.3704C4.6482 56.075 4.8006 55.664 4.8006 55.1374C4.8006 54.6108 4.6482 54.187 4.3561 53.8916C4.064 53.5961 3.556 53.442 2.8575 53.442H1.0541V56.8199Z" fill="white"/>
<path d="M8.9657 61.573C8.445 61.573 8.0132 61.4831 7.6703 61.3033C7.3274 61.1235 7.0734 60.8923 6.9083 60.5969C6.7432 60.3015 6.6543 59.9804 6.6543 59.6336C6.6543 58.9915 6.8956 58.5034 7.3782 58.1566C7.8608 57.8098 8.5212 57.6429 9.3594 57.6429H11.0358V57.5658C11.0358 57.0135 10.8961 56.6025 10.604 56.32C10.3119 56.0374 9.9436 55.8961 9.461 55.8961C9.0546 55.8961 8.699 55.9989 8.4069 56.2044C8.1148 56.4099 7.9243 56.7181 7.8481 57.1163H6.7686C6.8067 56.6539 6.9591 56.2814 7.2258 55.9603C7.4925 55.6521 7.8227 55.4081 8.2037 55.2411C8.5974 55.0741 9.0165 54.9971 9.461 54.9971C10.3246 54.9971 10.985 55.2283 11.4168 55.7035C11.8613 56.1787 12.0772 56.7952 12.0772 57.5787V61.4446H11.1374L11.0739 60.3143C10.8961 60.674 10.6421 60.9694 10.2992 61.2262C9.9563 61.4703 9.5118 61.5987 8.9403 61.5987L8.9657 61.573ZM9.1308 60.674C9.5372 60.674 9.8801 60.5712 10.1595 60.3529C10.4516 60.1474 10.6675 59.8648 10.8199 59.5309C10.9723 59.1969 11.0485 58.8373 11.0485 58.4649L9.461 58.452C8.8387 58.452 8.4069 58.5548 8.1529 58.7731C7.8989 58.9914 7.7719 59.2612 7.7719 59.5823C7.7719 59.9034 7.8862 60.1731 8.1275 60.3786C8.3688 60.5841 8.699 60.674 9.1308 60.674Z" fill="white"/>
<path d="M13.6777 61.4171V55.1365H14.6302L14.7191 56.3438C14.9096 55.9329 15.2017 55.5989 15.5954 55.3549C15.9891 55.1109 16.4717 54.9824 17.0432 54.9824V56.0998H16.7511C16.3828 56.0998 16.0399 56.164 15.7351 56.2925C15.4303 56.4209 15.1763 56.6393 14.9985 56.9603C14.8207 57.2686 14.7191 57.7053 14.7191 58.2576V61.4299H13.665L13.6777 61.4171Z" fill="white"/>
<path d="M20.6886 61.418C20.1171 61.418 19.6726 61.2768 19.3424 60.9942C19.0122 60.7116 18.8598 60.2107 18.8598 59.4915V56.0365H17.7803V55.1375H18.8598L18.9995 53.6348H19.9139V55.1375H21.7427V56.0365H19.9139V59.4915C19.9139 59.8896 19.9901 60.1594 20.1552 60.3006C20.3076 60.4419 20.5997 60.5061 20.9934 60.5061H21.6411V61.418H20.6886Z" fill="white"/>
<path d="M29.2355 61.5723C28.6513 61.5723 28.1179 61.4311 27.6607 61.1614C27.2035 60.8916 26.8225 60.5063 26.5558 60.0183C26.2891 59.5302 26.1494 58.9394 26.1494 58.2715C26.1494 57.6037 26.2891 57.0257 26.5685 56.5248C26.8479 56.0367 27.2162 55.6514 27.6861 55.3817C28.156 55.112 28.6894 54.9707 29.2736 54.9707C29.8578 54.9707 30.3785 55.112 30.8484 55.3817C31.3183 55.6514 31.6866 56.0367 31.9533 56.5248C32.22 57.0257 32.3597 57.6037 32.3597 58.2715C32.3597 58.9394 32.22 59.5174 31.9406 60.0183C31.6612 60.5192 31.2929 60.8916 30.823 61.1614C30.3531 61.4311 29.8197 61.5723 29.2355 61.5723ZM29.2355 60.6604C29.5911 60.6604 29.934 60.5705 30.2388 60.3907C30.5436 60.2109 30.7976 59.9412 30.9881 59.5944C31.1786 59.2348 31.2802 58.7981 31.2802 58.2715C31.2802 57.7449 31.1913 57.3083 31.0008 56.9486C30.8103 56.589 30.569 56.3321 30.2515 56.1523C29.9467 55.9725 29.6165 55.8826 29.2609 55.8826C28.9053 55.8826 28.5624 55.9725 28.2576 56.1523C27.9528 56.3321 27.6988 56.6019 27.5083 56.9486C27.3178 57.2954 27.2162 57.7449 27.2162 58.2715C27.2162 58.7981 27.3178 59.2348 27.5083 59.5944C27.6988 59.954 27.9528 60.2109 28.2576 60.3907C28.5624 60.5705 28.8926 60.6604 29.2355 60.6604Z" fill="white"/>
<path d="M34.1634 61.418V56.0365H33.2236V55.1374H34.1634V54.0457C34.1634 53.4421 34.3158 52.9925 34.6206 52.71C34.9254 52.4274 35.3572 52.2861 35.9414 52.2861H36.5637V53.198H36.0938C35.7763 53.198 35.5477 53.2623 35.4207 53.3907C35.281 53.5191 35.2175 53.7375 35.2175 54.0586V55.1246H36.7415V56.0236H35.2175V61.4051H34.1634V61.418Z" fill="white"/>
<path d="M43.7638 61.418C43.1923 61.418 42.7478 61.2768 42.4176 60.9942C42.0874 60.7116 41.935 60.2107 41.935 59.4915V56.0365H40.8555V55.1375H41.935L42.0747 53.6348H42.9891V55.1375H44.8179V56.0365H42.9891V59.4915C42.9891 59.8896 43.0653 60.1594 43.2304 60.3006C43.3828 60.4419 43.6749 60.5061 44.0686 60.5061H44.7163V61.418H43.7638Z" fill="white"/>
<path d="M46.1641 61.4178V52.2988H47.2182V56.2161C47.4214 55.8308 47.7262 55.5226 48.1072 55.3042C48.4882 55.0859 48.9073 54.9832 49.3645 54.9832C50.0884 54.9832 50.6599 55.2143 51.0917 55.6639C51.5235 56.1134 51.7394 56.807 51.7394 57.7445V61.4178H50.698V57.8601C50.698 56.5501 50.1773 55.8951 49.1359 55.8951C48.5898 55.8951 48.1326 56.0877 47.7643 56.4859C47.396 56.884 47.2182 57.4363 47.2182 58.1684V61.4307H46.1641V61.4178Z" fill="white"/>
<path d="M56.1212 61.5712C55.5243 61.5712 55.0036 61.4299 54.5464 61.1602C54.0892 60.8905 53.7209 60.5052 53.4669 60.0171C53.2129 59.5291 53.0732 58.9511 53.0732 58.2832C53.0732 57.6154 53.2002 57.0502 53.4669 56.5493C53.7209 56.0484 54.0892 55.676 54.5464 55.3934C55.0163 55.1237 55.5497 54.9824 56.1593 54.9824C56.7689 54.9824 57.2769 55.1237 57.7214 55.3934C58.1659 55.6631 58.4961 56.0228 58.7247 56.4723C58.9533 56.9218 59.0803 57.397 59.0803 57.9108C59.0803 58.0007 59.0803 58.1034 59.0803 58.1933C59.0803 58.2832 59.0803 58.386 59.0803 58.5144H54.1273C54.1527 58.9896 54.267 59.4006 54.4575 59.7089C54.648 60.03 54.902 60.2612 55.1941 60.4281C55.4862 60.5951 55.8037 60.6722 56.1466 60.6722C56.5784 60.6722 56.9467 60.5694 57.2388 60.3639C57.5309 60.1584 57.7468 59.8887 57.8738 59.5419H58.9152C58.7501 60.1199 58.4326 60.6079 57.9627 60.9933C57.4928 61.3786 56.8832 61.5712 56.1466 61.5712H56.1212ZM56.1212 55.8815C55.6259 55.8815 55.1687 56.0356 54.7877 56.3438C54.394 56.6521 54.1781 57.1016 54.1146 57.6924H58.0262C58.0008 57.1273 57.8103 56.6778 57.4547 56.3567C57.0991 56.0356 56.6546 55.8686 56.1212 55.8686V55.8815Z" fill="white"/>
<path d="M71.9204 56.3826H67.323V58.2064H69.8503C69.4185 59.1953 68.5168 59.8503 67.2976 59.8503C65.6085 59.8503 64.4655 58.643 64.4655 56.8321C64.4655 55.0211 65.6212 53.8138 67.2976 53.8138C68.2755 53.8138 69.0629 54.212 69.5455 54.8798L71.3108 54.2762C70.5488 52.9148 69.1264 52.0928 67.2849 52.0928C64.5544 52.0928 62.6494 54.0065 62.6494 56.8192C62.6494 59.632 64.5163 61.5457 67.2849 61.5457C70.0535 61.5457 71.9204 59.4907 71.9204 56.8192C71.9204 56.6651 71.9204 56.511 71.9077 56.3569L71.9204 56.3826Z" fill="white"/>
<path d="M90.8941 56.3826H86.2966V58.2064H88.824C88.3922 59.1953 87.4905 59.8503 86.2713 59.8503C84.5822 59.8503 83.4391 58.643 83.4391 56.8321C83.4391 55.0211 84.5949 53.8138 86.2713 53.8138C87.2492 53.8138 88.0365 54.212 88.5191 54.8798L90.2844 54.2762C89.5224 52.9148 88.1 52.0928 86.2585 52.0928C83.528 52.0928 81.623 54.0065 81.623 56.8192C81.623 59.632 83.4899 61.5457 86.2585 61.5457C89.0271 61.5457 90.8941 59.4907 90.8941 56.8192C90.8941 56.6651 90.894 56.511 90.8813 56.3569L90.8941 56.3826Z" fill="white"/>
<path d="M92.1133 56.8582C92.1133 55.471 92.5197 54.3408 93.3452 53.4546C94.1707 52.5812 95.3137 52.1445 96.7996 52.1445C97.3076 52.1445 97.7648 52.1959 98.1966 52.2987C98.6284 52.4014 98.9713 52.5427 99.238 52.7097C99.5047 52.8766 99.746 53.0693 99.9619 53.2748C100.178 53.4803 100.33 53.6858 100.444 53.8913C100.546 54.0968 100.635 54.2894 100.711 54.4564C100.787 54.6234 100.825 54.7646 100.838 54.8674L100.864 55.0215H99.7841C99.7841 55.0215 99.7587 54.8931 99.7333 54.8032C99.7079 54.7133 99.6317 54.5591 99.492 54.328C99.3523 54.0968 99.1872 53.8913 98.9967 53.7115C98.8062 53.5316 98.5141 53.3647 98.1204 53.2234C97.7267 53.0821 97.2949 53.0051 96.7996 53.0051C95.6058 53.0051 94.7041 53.3775 94.0945 54.1096C93.4722 54.8417 93.1674 55.7536 93.1674 56.8325C93.1674 57.9113 93.4849 58.7847 94.1199 59.5296C94.7549 60.2746 95.6439 60.647 96.8123 60.647C97.333 60.647 97.8029 60.5571 98.2093 60.3773C98.6157 60.1975 98.9459 59.9535 99.1872 59.6581C99.4285 59.3498 99.619 59.0416 99.746 58.7076C99.873 58.3737 99.9619 58.0398 99.9873 57.6802H96.8504V56.8325H101.029V57.0508C101.029 57.6031 100.952 58.1554 100.813 58.6691C100.673 59.1957 100.432 59.6709 100.102 60.1205C99.7714 60.5571 99.3269 60.9039 98.7554 61.1608C98.1839 61.4177 97.5362 61.5333 96.7996 61.5333C95.3772 61.5333 94.2469 61.0966 93.396 60.2232C92.5451 59.3498 92.1133 58.2196 92.1133 56.8453V56.8582Z" fill="white"/>
<path d="M102.553 55.0215V56.2159C102.909 55.4196 103.506 55.0215 104.369 55.0215H105.296V55.8692H104.395C103.683 55.8692 103.213 56.0875 102.972 56.5113C102.731 56.9352 102.604 57.693 102.604 58.7718V61.4048H101.639V55.0215H102.566H102.553Z" fill="white"/>
<path d="M106.033 55.8175C106.655 55.1881 107.48 54.8799 108.522 54.8799C109.563 54.8799 110.389 55.1881 111.011 55.8175C111.633 56.4468 111.938 57.2431 111.938 58.2192C111.938 59.1954 111.633 60.0173 111.024 60.6338C110.414 61.2503 109.576 61.5586 108.534 61.5586C107.493 61.5586 106.668 61.2503 106.045 60.6338C105.423 60.0173 105.118 59.2082 105.118 58.2321C105.118 57.256 105.423 56.4597 106.045 55.8303L106.033 55.8175ZM106.109 58.2192C106.109 58.9899 106.325 59.6064 106.756 60.0687C107.188 60.5311 107.772 60.7623 108.522 60.7623C109.271 60.7623 109.83 60.5311 110.274 60.0687C110.719 59.6064 110.935 58.9899 110.935 58.2192C110.935 57.4486 110.719 56.8578 110.287 56.3826C109.855 55.9074 109.271 55.6762 108.522 55.6762C107.772 55.6762 107.214 55.9074 106.769 56.3826C106.325 56.8578 106.109 57.4615 106.109 58.2192Z" fill="white"/>
<path d="M112.383 58.6562V55.0215H113.348V58.6562C113.348 59.3883 113.5 59.9149 113.793 60.236C114.097 60.5571 114.542 60.7241 115.126 60.7241C115.71 60.7241 116.18 60.5186 116.536 60.1204C116.891 59.7223 117.082 59.1186 117.082 58.3095V55.0343H118.047V61.4176H117.12V60.1975C116.955 60.5699 116.688 60.9039 116.345 61.1608C116.002 61.4176 115.571 61.5589 115.088 61.5589C114.174 61.5589 113.488 61.3277 113.043 60.8525C112.599 60.3773 112.383 59.6452 112.383 58.6691V58.6562Z" fill="white"/>
<path d="M118.936 55.0212H119.863V56.0615C120.434 55.278 121.234 54.8799 122.25 54.8799C123.266 54.8799 124.104 55.1881 124.689 55.8046C125.273 56.4211 125.565 57.2303 125.565 58.2321C125.565 59.2339 125.273 60.043 124.689 60.6467C124.104 61.2375 123.33 61.5457 122.352 61.5457H122.174C121.234 61.5201 120.485 61.1347 119.913 60.4027V64.0117H118.948V55.034L118.936 55.0212ZM119.863 58.2192C119.863 58.9513 120.066 59.555 120.472 60.0302C120.879 60.5054 121.437 60.7494 122.161 60.7494C122.885 60.7494 123.444 60.5183 123.889 60.0559C124.333 59.5935 124.549 58.9899 124.549 58.2449C124.549 57.4486 124.333 56.8193 123.889 56.3697C123.444 55.9074 122.873 55.6762 122.149 55.6762C121.425 55.6762 120.866 55.9074 120.46 56.3826C120.053 56.845 119.85 57.4615 119.85 58.2192H119.863Z" fill="white"/>
<path d="M125.375 52.5169C125.566 52.3243 125.782 52.2344 126.048 52.2344C126.315 52.2344 126.544 52.3243 126.721 52.5169C126.912 52.7096 127.001 52.9279 127.001 53.1977C127.001 53.4674 126.912 53.6857 126.721 53.8784C126.531 54.071 126.315 54.1609 126.048 54.1609C125.782 54.1609 125.553 54.071 125.375 53.8784C125.185 53.6857 125.096 53.4674 125.096 53.1977C125.096 52.9279 125.185 52.6967 125.375 52.5169ZM125.248 53.1977C125.248 53.416 125.324 53.6086 125.477 53.7756C125.629 53.9297 125.82 54.0196 126.048 54.0196C126.277 54.0196 126.455 53.9426 126.62 53.7756C126.772 53.6215 126.861 53.4288 126.861 53.1977C126.861 52.9665 126.785 52.7738 126.62 52.6197C126.467 52.4527 126.277 52.3757 126.048 52.3757C125.82 52.3757 125.629 52.4527 125.477 52.6197C125.324 52.7867 125.248 52.9793 125.248 53.1977ZM125.705 53.6857V52.6711H126.099C126.213 52.6711 126.315 52.6968 126.378 52.761C126.442 52.8123 126.48 52.8894 126.48 52.9922C126.48 53.1077 126.429 53.1977 126.328 53.249C126.404 53.2747 126.442 53.3261 126.442 53.4032V53.6986H126.302V53.4032C126.302 53.3261 126.277 53.3004 126.213 53.3004H125.845V53.6986H125.705V53.6857ZM125.845 52.7995V53.172H126.099C126.175 53.172 126.226 53.1591 126.277 53.1206C126.315 53.0821 126.34 53.0435 126.34 52.9793C126.34 52.8509 126.264 52.7867 126.112 52.7867H125.858L125.845 52.7995Z" fill="white"/>
<path d="M80.861 52.2979H79.0576V55.9455H80.861V52.2979Z" fill="white"/>
<path d="M74.5622 52.2979H72.7588V55.9455H74.5622V52.2979Z" fill="white"/>
<path d="M74.5622 61.404V57.9876C74.5622 57.8592 74.6638 57.7564 74.7908 57.7564H78.8294C78.9564 57.7564 79.058 57.8592 79.058 57.9876V61.404H80.8614V58.039C80.8614 57.8592 80.7852 57.6794 80.6582 57.5509L79.058 55.9326H74.5495L72.9493 57.5638C72.8223 57.6922 72.7461 57.872 72.7461 58.0518V61.404H74.5495H74.5622Z" fill="white"/>
<path d="M75.3872 63.4593C75.4634 63.4593 75.4634 63.3438 75.3872 63.3438C75.311 63.3438 75.311 63.4593 75.3872 63.4593Z" fill="white"/>
</g>
<defs>
<clipPath id="clip0_388_7320">
<rect width="127" height="64" fill="white"/>
</clipPath>
</defs>
</svg>
