<?xml version="1.0" standalone="no"?>
<!DOCTYPE svg PUBLIC "-//W3C//DTD SVG 20010904//EN"
 "http://www.w3.org/TR/2001/REC-SVG-20010904/DTD/svg10.dtd">
<svg version="1.0" xmlns="http://www.w3.org/2000/svg"
 width="512.000000pt" height="512.000000pt" viewBox="0 0 512.000000 512.000000"
 preserveAspectRatio="xMidYMid meet">
<metadata>
Created by potrace 1.14, written by Peter Selinger 2001-2017
</metadata>
<g transform="translate(0.000000,512.000000) scale(0.100000,-0.100000)"
fill="#000000" stroke="none">
<path d="M0 2560 l0 -2560 2560 0 2560 0 0 2560 0 2560 -2560 0 -2560 0 0
-2560z m1330 689 c155 -39 295 -134 376 -254 l34 -50 -137 -46 -137 -45 -34
38 c-19 21 -68 55 -110 76 -75 37 -77 37 -197 37 -120 0 -122 0 -197 -38 -129
-64 -207 -176 -228 -329 -27 -195 45 -376 188 -466 75 -48 150 -65 264 -60 83
4 106 9 160 36 71 35 128 86 170 152 l29 45 -193 5 -193 5 -3 138 -3 137 357
0 357 0 -6 -112 c-11 -208 -64 -335 -197 -469 -144 -144 -285 -201 -505 -201
-141 0 -238 21 -354 78 -91 45 -201 147 -254 235 -79 134 -117 327 -97 491 28
229 124 394 299 509 164 109 396 142 611 88z m2893 0 c132 -33 253 -105 333
-199 43 -50 77 -100 72 -106 -3 -2 -64 -24 -136 -48 l-130 -44 -38 40 c-86 87
-188 123 -334 116 -82 -4 -108 -10 -163 -36 -87 -40 -150 -104 -195 -199 -32
-69 -36 -86 -40 -182 -9 -218 63 -358 226 -439 75 -37 77 -37 196 -37 131 0
170 11 260 73 37 25 126 134 126 153 0 5 -85 9 -190 9 l-190 0 0 140 0 140
349 0 349 0 6 -31 c9 -48 -11 -199 -39 -286 -65 -205 -215 -360 -415 -427
-206 -69 -447 -49 -630 51 -87 48 -195 159 -242 248 -60 117 -80 193 -85 340
-7 196 25 320 119 461 159 238 475 343 791 263z m-1993 -274 l0 -275 340 0
340 0 2 273 3 272 138 3 137 3 0 -281 0 -280 -132 0 -132 0 132 -133 132 -134
0 -276 0 -277 -140 0 -140 0 -2 273 -3 272 -324 3 c-230 2 -328 -1 -337 -9
-11 -9 -14 -64 -14 -275 l0 -264 -140 0 -141 0 3 275 3 275 135 135 134 134
-134 3 -135 3 -3 278 -2 277 140 0 140 0 0 -275z"/>
</g>
</svg>
