<?xml version="1.0" standalone="no"?>
<!DOCTYPE svg PUBLIC "-//W3C//DTD SVG 20010904//EN"
 "http://www.w3.org/TR/2001/REC-SVG-20010904/DTD/svg10.dtd">
<svg version="1.0" xmlns="http://www.w3.org/2000/svg"
 width="512.000000pt" height="512.000000pt" viewBox="0 0 512.000000 512.000000"
 preserveAspectRatio="xMidYMid meet">
<metadata>
Created by potrace 1.14, written by Peter Selinger 2001-2017
</metadata>
<g transform="translate(0.000000,512.000000) scale(0.100000,-0.100000)"
fill="#000000" stroke="none">
<path d="M0 2560 l0 -2560 2560 0 2560 0 0 2560 0 2560 -2560 0 -2560 0 0
-2560z m3910 610 l0 -130 400 0 400 0 0 -135 0 -135 -397 -2 -398 -3 0 -307 0
-308 33 -32 32 -33 365 -3 365 -3 0 -130 0 -130 -402 3 -403 3 -53 28 c-75 39
-124 87 -163 159 l-34 63 -3 613 -3 612 131 0 130 0 0 -130z m-2455 -141 c120
-22 223 -100 273 -207 l27 -57 3 -473 3 -473 -543 3 -543 3 -57 27 c-73 34
-142 103 -176 176 -24 50 -27 69 -27 162 0 100 1 108 34 168 41 75 103 135
179 170 l57 27 403 3 402 3 0 73 c0 68 -2 74 -31 102 l-30 29 -455 3 -454 3 0
134 0 135 438 0 c274 0 460 -4 497 -11z m847 -391 l3 -403 24 -42 c31 -53 81
-89 146 -103 31 -6 162 -9 340 -8 l290 3 3 478 2 477 130 0 130 0 0 -610 0
-610 -475 0 c-454 0 -478 1 -537 21 -118 39 -212 118 -271 228 -51 93 -57 149
-57 579 l0 392 135 0 134 0 3 -402z"/>
<path d="M735 2278 c-62 -33 -73 -107 -26 -160 l29 -33 376 -3 376 -3 0 106 0
105 -367 0 c-248 -1 -375 -4 -388 -12z"/>
</g>
</svg>
