<?xml version="1.0" standalone="no"?>
<!DOCTYPE svg PUBLIC "-//W3C//DTD SVG 20010904//EN"
 "http://www.w3.org/TR/2001/REC-SVG-20010904/DTD/svg10.dtd">
<svg version="1.0" xmlns="http://www.w3.org/2000/svg"
 width="512.000000pt" height="512.000000pt" viewBox="0 0 512.000000 512.000000"
 preserveAspectRatio="xMidYMid meet">
<metadata>
Created by potrace 1.14, written by Peter Selinger 2001-2017
</metadata>
<g transform="translate(0.000000,512.000000) scale(0.100000,-0.100000)"
fill="#000000" stroke="none">
<path d="M202 4917 l-202 -202 0 -2358 0 -2357 2353 0 2352 0 207 207 208 207
0 2353 0 2353 -2358 0 -2357 0 -203 -203z m1318 -2169 c0 -489 -5 -538 -54
-635 -42 -84 -111 -133 -242 -172 -66 -19 -94 -21 -399 -21 -358 0 -395 4
-505 60 -122 62 -174 163 -191 374 -5 66 -8 125 -5 131 3 8 47 11 147 9 l144
-2 7 -79 c10 -108 23 -146 63 -182 57 -50 96 -56 345 -56 222 0 226 0 281 26
68 32 94 70 108 159 6 37 11 230 11 453 l0 387 145 0 145 0 0 -452z m1207 440
c6 -7 44 -87 86 -178 41 -91 131 -286 200 -435 68 -148 159 -346 202 -440 43
-93 82 -174 86 -179 5 -6 9 -14 9 -18 0 -4 -72 -8 -161 -8 l-160 0 -40 88
c-22 48 -45 97 -52 110 l-13 23 -420 0 -419 1 -23 -44 c-12 -24 -37 -74 -55
-112 -17 -38 -35 -68 -39 -68 -5 1 -73 2 -153 2 l-145 0 14 33 c7 17 50 106
94 197 91 188 279 589 402 858 l84 182 247 0 c185 0 249 -3 256 -12z m1935 -8
c188 -47 252 -115 265 -281 l6 -77 -136 -7 c-74 -4 -139 -5 -145 -1 -5 3 -12
24 -15 47 -7 52 -27 74 -91 96 -44 16 -88 18 -341 18 -312 0 -357 -6 -401 -50
-33 -33 -33 -103 -1 -139 37 -43 163 -66 467 -86 222 -14 367 -36 477 -71 179
-57 251 -163 240 -355 -5 -103 -9 -121 -37 -180 -37 -76 -119 -125 -265 -159
-54 -12 -142 -15 -468 -15 -384 1 -406 2 -487 23 -154 41 -218 97 -246 214 -8
32 -14 82 -14 111 l0 52 105 2 c204 4 179 10 185 -44 10 -80 54 -111 175 -123
84 -9 530 -9 596 0 117 14 159 45 159 117 0 121 -72 143 -566 178 -157 11
-346 39 -426 64 -155 47 -218 137 -218 312 0 210 65 300 255 352 64 18 106 20
460 21 355 1 397 -1 467 -19z"/>
<path d="M2351 2868 c-16 -35 -49 -112 -75 -173 -25 -60 -61 -146 -81 -190
-55 -127 -82 -115 268 -115 167 0 306 2 309 6 5 4 -76 203 -141 349 -5 11 -24
57 -43 102 l-33 82 -88 1 -88 0 -28 -62z"/>
</g>
</svg>
