<?xml version="1.0" standalone="no"?>
<!DOCTYPE svg PUBLIC "-//W3C//DTD SVG 20010904//EN"
 "http://www.w3.org/TR/2001/REC-SVG-20010904/DTD/svg10.dtd">
<svg version="1.0" xmlns="http://www.w3.org/2000/svg"
 width="512.000000pt" height="512.000000pt" viewBox="0 0 512.000000 512.000000"
 preserveAspectRatio="xMidYMid meet">
<metadata>
Created by potrace 1.14, written by Peter Selinger 2001-2017
</metadata>
<g transform="translate(0.000000,512.000000) scale(0.100000,-0.100000)"
fill="#000000" stroke="none">
<path d="M3307 3960 c-104 -33 -153 -75 -321 -274 l-157 -186 -686 -2 -686 -3
-83 -225 c-46 -124 -83 -231 -83 -237 -1 -10 129 -13 618 -13 l619 0 201 240
202 240 720 0 719 0 -6 28 c-13 53 -62 148 -107 207 -56 74 -132 137 -218 180
-115 59 -159 65 -430 64 -210 0 -252 -3 -302 -19z"/>
<path d="M2794 3113 l-199 -238 -684 -5 -684 -5 -83 -230 c-46 -126 -84 -233
-84 -237 0 -4 276 -8 614 -8 l614 0 202 240 202 240 743 0 743 0 50 54 c27 30
61 75 75 99 37 63 75 181 83 260 l7 67 -700 0 -699 0 -200 -237z"/>
<path d="M2639 2583 c-63 -76 -154 -184 -202 -240 l-88 -103 -675 -2 -676 -3
-84 -230 c-46 -126 -84 -233 -84 -237 0 -4 274 -8 610 -8 l609 0 202 240 201
240 1045 0 1046 0 -8 82 c-12 138 -75 298 -147 376 l-21 22 -807 0 -807 0
-114 -137z"/>
<path d="M2319 1856 l-204 -245 -673 -3 -674 -3 -84 -230 c-46 -126 -84 -234
-84 -238 0 -4 249 -6 553 -5 546 3 553 3 607 25 89 37 145 88 301 273 l147
175 894 5 893 5 81 28 c145 49 275 151 358 280 41 64 79 154 71 168 -4 5 -398
9 -994 9 l-988 0 -204 -244z"/>
</g>
</svg>
